<svg width="75.000000" height="25.000000" viewBox="0 0 75 25" fill="none" xmlns="http://www.w3.org/2000/svg" xmlns:xlink="http://www.w3.org/1999/xlink">
	<desc>
			Created with Pixso.
	</desc>
	<defs>
		<clipPath id="clip2_1">
			<rect id="Frame 1" width="75.000000" height="25.000000" fill="white" fill-opacity="0"/>
		</clipPath>
	</defs>
	<rect id="Frame 1" width="75.000000" height="25.000000" fill="#FFFFFF" fill-opacity="0"/>
	<g clip-path="url(#clip2_1)">
		<path id="Logo" d="M13.65 17.88L13.65 19L24.27 19L24.87 14.67L23.76 14.67L22.39 17.46L18.76 17.46L18.76 6.55L20.59 6.11L20.59 5L13.65 5L13.65 6.11L15.5 6.55L15.5 17.44L13.65 17.88ZM37.49 21.15Q37.34 21.57 37.34 22.04Q37.34 22.54 37.53 22.95Q38.39 24.74 43 24.74Q45.68 24.74 47.17 23.58Q48.27 22.73 48.56 21.66Q48.65 21.29 48.65 20.89Q48.65 19.83 48.17 19.08Q47.93 18.72 47.59 18.44Q46.52 17.55 44.53 17.55L43.07 17.55Q42.08 17.55 41.65 17.47Q41.5 17.43 41.37 17.36Q41.14 17.23 40.99 16.97L41.88 15.75Q42.21 15.78 42.94 15.78Q45.15 15.78 46.46 14.79Q47.29 14.16 47.6 13.34Q47.78 12.86 47.78 12.32Q47.78 12.2 47.77 12.09Q47.69 11.31 47.14 10.58L49.33 10.58Q49.42 10.24 49.42 9.56Q49.42 9.05 49.23 8.61Q49.21 8.55 49.18 8.5L46.06 9.65Q46.03 9.64 46.01 9.63Q44.7 8.85 42.94 8.85Q40.92 8.85 39.57 9.81Q39.53 9.84 39.49 9.86Q38.55 10.57 38.26 11.48Q38.14 11.88 38.14 12.32Q38.14 12.75 38.26 13.16Q38.4 13.64 38.71 14.07Q39.29 14.85 40.33 15.31L38.03 17.3Q38 17.56 38.04 17.81Q38.05 17.88 38.06 17.95Q38.14 18.28 38.25 18.52Q38.47 18.92 38.79 19.23Q38.94 19.37 39.11 19.49Q37.86 20.16 37.49 21.15ZM29.13 18.95Q30.07 19.29 31.13 19.29Q32.28 19.29 33.25 18.9Q34.03 18.58 34.65 18.07Q34.81 17.94 34.96 17.79Q35.15 17.61 35.31 17.41Q35.8 16.83 36.11 16.09Q36.14 16.02 36.17 15.94Q36.52 15.03 36.52 13.98Q36.52 12.81 36.11 11.85Q35.8 11.12 35.31 10.55Q35.15 10.35 34.96 10.18Q34.79 10.01 34.61 9.87Q34.01 9.38 33.25 9.09Q32.28 8.7 31.13 8.7Q30.05 8.7 29.09 9.06Q29.05 9.07 29.01 9.09Q28.18 9.41 27.54 9.95Q27.41 10.06 27.29 10.18Q27.19 10.27 27.1 10.38Q26.52 11.01 26.15 11.85Q25.73 12.81 25.73 13.98Q25.73 15.11 26.14 16.08Q26.15 16.1 26.15 16.11Q26.53 16.99 27.14 17.64Q27.21 17.72 27.29 17.8Q27.35 17.86 27.42 17.92Q28.1 18.53 29.01 18.9Q29.07 18.92 29.13 18.95ZM53.45 18.95Q54.39 19.29 55.45 19.29Q56.6 19.29 57.57 18.9Q58.35 18.58 58.97 18.07Q59.13 17.94 59.28 17.79Q59.47 17.61 59.63 17.41Q60.12 16.83 60.43 16.09Q60.46 16.02 60.49 15.94Q60.84 15.03 60.84 13.98Q60.84 12.81 60.43 11.85Q60.12 11.12 59.63 10.55Q59.47 10.35 59.28 10.18Q59.11 10.01 58.93 9.87Q58.33 9.38 57.57 9.09Q56.6 8.7 55.45 8.7Q54.37 8.7 53.41 9.06Q53.37 9.07 53.33 9.09Q52.5 9.41 51.86 9.95Q51.73 10.06 51.61 10.18Q51.51 10.27 51.42 10.38Q50.84 11.01 50.47 11.85Q50.05 12.81 50.05 13.98Q50.05 15.11 50.46 16.08Q50.47 16.1 50.47 16.11Q50.85 16.99 51.46 17.64Q51.53 17.72 51.61 17.8Q51.67 17.86 51.74 17.92Q52.42 18.53 53.33 18.9Q53.39 18.92 53.45 18.95ZM29.5 16.92Q28.96 15.86 28.96 13.98Q28.96 12.12 29.5 11.06Q29.83 10.43 30.34 10.17Q30.7 10 31.13 10Q31.57 10 31.92 10.17Q32.44 10.43 32.77 11.06Q33.32 12.12 33.32 13.98Q33.32 15.86 32.77 16.92Q32.43 17.57 31.91 17.82Q31.57 17.99 31.13 17.99Q30.7 17.99 30.36 17.82Q29.83 17.57 29.5 16.92ZM53.82 16.92Q53.28 15.86 53.28 13.98Q53.28 12.12 53.82 11.06Q54.15 10.43 54.66 10.17Q55.02 10 55.45 10Q55.89 10 56.24 10.17Q56.76 10.43 57.09 11.06Q57.64 12.12 57.64 13.98Q57.64 15.86 57.09 16.92Q56.75 17.57 56.23 17.82Q55.89 17.99 55.45 17.99Q55.02 17.99 54.68 17.82Q54.15 17.57 53.82 16.92ZM44.17 14.11Q43.71 14.49 42.94 14.49Q42.08 14.49 41.63 14.06Q41.55 13.98 41.48 13.89Q41.04 13.28 41.04 12.32Q41.04 11.35 41.48 10.72Q41.56 10.6 41.67 10.5Q42.11 10.09 42.94 10.09Q43.67 10.09 44.13 10.45Q44.27 10.57 44.39 10.72Q44.43 10.77 44.46 10.82Q44.88 11.42 44.88 12.32Q44.88 13.23 44.44 13.82Q44.42 13.86 44.39 13.89Q44.29 14.01 44.17 14.11ZM40.67 22.63Q40.37 22.22 40.37 21.59Q40.37 21.1 40.54 20.67Q40.65 20.41 40.81 20.18L44 20.18Q45.37 20.18 45.89 20.5Q46.13 20.66 46.26 20.88Q46.41 21.13 46.41 21.48Q46.41 21.7 46.35 21.91Q46.17 22.46 45.51 22.87Q44.62 23.43 42.94 23.43Q41.25 23.43 40.67 22.63Z" fill="#000000" fill-opacity="1.000000" fill-rule="evenodd"/>
		<rect id="Rectangle 2" width="2.000000" height="25.000000" fill="#000000" fill-opacity="1.000000"/>
		<rect id="Rectangle 3" x="73.000000" width="2.000000" height="25.000000" fill="#000000" fill-opacity="1.000000"/>
	</g>
</svg>
