<svg width="75.000000" height="25.000000" viewBox="0 0 75 25" fill="none" xmlns="http://www.w3.org/2000/svg" xmlns:xlink="http://www.w3.org/1999/xlink">
	<desc>
			Created with Pixso.
	</desc>
	<defs>
		<clipPath id="clip2_1">
			<rect id="Frame 1" width="75.000000" height="25.000000" fill="white" fill-opacity="0"/>
		</clipPath>
	</defs>
	<rect id="Frame 1" width="75.000000" height="25.000000" fill="#FFFFFF" fill-opacity="0"/>
	<g clip-path="url(#clip2_1)">
		<path id="Logo" d="M13.65 17.88L13.65 19L24.27 19L24.87 14.67L23.76 14.67L22.39 17.46L18.76 17.46L18.76 6.55L20.59 6.11L20.59 5L13.65 5L13.65 6.11L15.5 6.55L15.5 17.44L13.65 17.88ZM39.11 19.49C37.93 20.12 37.34 20.97 37.34 22.04Q37.34 22.54 37.53 22.95Q38.39 24.74 43 24.74C44.78 24.74 46.17 24.35 47.17 23.58C48.16 22.82 48.65 21.92 48.65 20.89Q48.65 19.83 48.17 19.08Q47.93 18.72 47.59 18.44C46.87 17.85 45.86 17.55 44.53 17.55L43.07 17.55Q42.08 17.55 41.65 17.47C41.37 17.4 41.15 17.24 40.99 16.97L41.88 15.75C42.1 15.77 42.45 15.78 42.94 15.78Q45.15 15.78 46.46 14.79C47.34 14.13 47.78 13.3 47.78 12.32C47.78 11.72 47.56 11.14 47.14 10.58L49.33 10.58C49.39 10.35 49.42 10.01 49.42 9.56C49.42 9.17 49.34 8.82 49.18 8.5L46.06 9.65Q46.03 9.64 46.01 9.63Q44.7 8.85 42.94 8.85Q40.92 8.85 39.57 9.81Q39.53 9.84 39.49 9.86Q38.55 10.57 38.26 11.48Q38.14 11.88 38.14 12.32Q38.14 12.75 38.26 13.16Q38.4 13.64 38.71 14.07C39.1 14.59 39.64 15.01 40.33 15.31L38.03 17.3Q38 17.56 38.04 17.81Q38.05 17.88 38.06 17.95C38.11 18.17 38.18 18.36 38.25 18.52C38.47 18.92 38.76 19.24 39.11 19.49ZM29.01 18.9C29.67 19.16 30.38 19.29 31.13 19.29Q32.28 19.29 33.25 18.9C33.91 18.63 34.48 18.26 34.96 17.79C35.45 17.31 35.83 16.75 36.11 16.09Q36.14 16.02 36.17 15.94Q36.52 15.03 36.52 13.98Q36.52 12.81 36.11 11.85Q35.8 11.12 35.31 10.55Q35.15 10.35 34.96 10.18C34.48 9.71 33.91 9.34 33.25 9.09C32.6 8.83 31.9 8.7 31.13 8.7C30.38 8.7 29.67 8.83 29.01 9.09C28.34 9.34 27.77 9.71 27.29 10.18Q27.19 10.27 27.1 10.38Q26.52 11.01 26.15 11.85C25.87 12.49 25.73 13.2 25.73 13.98Q25.73 15.11 26.14 16.08Q26.15 16.1 26.15 16.11C26.43 16.77 26.81 17.33 27.29 17.8C27.77 18.26 28.34 18.63 29.01 18.9ZM53.33 18.9C53.99 19.16 54.7 19.29 55.45 19.29C56.22 19.29 56.92 19.16 57.57 18.9C58.23 18.63 58.8 18.26 59.28 17.79C59.77 17.31 60.15 16.75 60.43 16.09Q60.46 16.02 60.49 15.94Q60.84 15.03 60.84 13.98Q60.84 12.81 60.43 11.85Q60.12 11.12 59.63 10.55Q59.47 10.35 59.28 10.18C58.8 9.71 58.23 9.34 57.57 9.09C56.92 8.83 56.22 8.7 55.45 8.7C54.7 8.7 53.99 8.83 53.33 9.09C52.66 9.34 52.09 9.71 51.61 10.18C51.13 10.64 50.75 11.2 50.47 11.85C50.19 12.49 50.05 13.2 50.05 13.98C50.05 14.75 50.19 15.46 50.47 16.11C50.75 16.77 51.13 17.33 51.61 17.8Q51.67 17.86 51.74 17.92Q52.42 18.53 53.33 18.9ZM29.5 16.92C29.14 16.21 28.96 15.23 28.96 13.98Q28.96 12.12 29.5 11.06C29.87 10.35 30.42 10 31.13 10C31.85 10 32.4 10.35 32.77 11.06C33.13 11.76 33.32 12.74 33.32 13.98Q33.32 15.86 32.77 16.92C32.4 17.64 31.85 17.99 31.13 17.99C30.42 17.99 29.87 17.64 29.5 16.92ZM53.82 16.92C53.46 16.21 53.28 15.23 53.28 13.98C53.28 12.74 53.46 11.76 53.82 11.06C54.19 10.35 54.74 10 55.45 10C56.17 10 56.72 10.35 57.09 11.06C57.45 11.76 57.64 12.74 57.64 13.98C57.64 15.23 57.45 16.21 57.09 16.92C56.72 17.64 56.17 17.99 55.45 17.99C54.74 17.99 54.19 17.64 53.82 16.92ZM44.39 13.89C44.07 14.29 43.59 14.49 42.94 14.49C42.26 14.49 41.77 14.29 41.48 13.89C41.18 13.48 41.04 12.96 41.04 12.32Q41.04 11.35 41.48 10.72C41.77 10.3 42.26 10.09 42.94 10.09C43.59 10.09 44.07 10.3 44.39 10.72Q44.43 10.77 44.46 10.82Q44.88 11.42 44.88 12.32C44.88 12.96 44.71 13.48 44.39 13.89ZM42.94 23.43C41.23 23.43 40.37 22.82 40.37 21.59C40.37 21.06 40.52 20.59 40.81 20.18L44 20.18C44.91 20.18 45.55 20.29 45.89 20.5C46.24 20.73 46.41 21.05 46.41 21.48C46.41 22.04 46.11 22.5 45.51 22.87C44.92 23.25 44.06 23.43 42.94 23.43Z" fill="#D5D5D5" fill-opacity="1.000000" fill-rule="evenodd"/>
		<rect id="Rectangle 2" width="2.000000" height="25.000000" fill="#D5D5D5" fill-opacity="1.000000"/>
		<rect id="Rectangle 3" x="73.000000" width="2.000000" height="25.000000" fill="#D5D5D5" fill-opacity="1.000000"/>
	</g>
</svg>
